# xmcd
#
# Track frame offsets: 
#        150
#        16110
#        36339
#        56321
#        71952
#        90606
#        113937
#        132332
#        153206
#        170692
#        190153
#        208523
#        228507
#        247858
#        266204
#        282585
#        303206
#        333161
#        349011
#
# Disc length: 4786 seconds
#
# Revision: 0
# Processed by: cddbd v1.5.1PL0 Copyright (c) Steve Scherf et al.
# Submitted via: ExactAudioCopy v0.95a5
#
DISCID=0f12b013
DTITLE=Various Artist - Compilation Latina #1
DYEAR=2003
DGENRE=Latin
TTITLE0=Aventura - Cuando Volveras
TTITLE1=Aventura - Dime Si Te Gusto
TTITLE2=Aventura - Eso No Es Amor
TTITLE3=Aventura - Mujeriego
TTITLE4=Monchy y Alexandra - Dos Locos
TTITLE5=Monchy y Alexandra - Hoja En Blanco
TTITLE6=Yoscar Sarante - Guitarra
TTITLE7=Celia Cruz - El Carnaval
TTITLE8=Los Locos - Moviendo La Scadera
TTITLE9=Los Hermanos Rosario - La Duena Del Swing
TTITLE10=Juan Luis Guerra - Billirubina
TTITLE11=Elvis Crespo - Luna Llena
TTITLE12=Mala Fe - La Vaca
TTITLE13=Elvis Crespo Feat. Tempo - Bandida
TTITLE14=Thalia - Salsa Mujer Latina
TTITLE15=La Sonora Carruseles - Salsa Y Fuego
TTITLE16=Afro Cuban All Stars - Amor Verdadero
TTITLE17=Gypsy King - Salsa De Noche
TTITLE18=Celia Cruz - Cuba Que Lindo Son Tus Paisajes
EXTD=
EXTT0=
EXTT1=
EXTT2=
EXTT3=
EXTT4=
EXTT5=
EXTT6=
EXTT7=
EXTT8=
EXTT9=
EXTT10=
EXTT11=
EXTT12=
EXTT13=
EXTT14=
EXTT15=
EXTT16=
EXTT17=
EXTT18=
PLAYORDER=
